<?xml version="1.0" encoding="utf-8"?>
<!-- Generator: Adobe Illustrator 25.4.1, SVG Export Plug-In . SVG Version: 6.00 Build 0)  -->
<svg version="1.1" id="Calque_1" xmlns="http://www.w3.org/2000/svg" xmlns:xlink="http://www.w3.org/1999/xlink" x="0px" y="0px"
	 viewBox="0 0 1125 2436" style="enable-background:new 0 0 1125 2436;" xml:space="preserve">
<style type="text/css">
	.st0{fill:url(#SVGID_1_);}
	.st1{clip-path:url(#SVGID_00000163073764255516499590000000211994461155631748_);}
	.st2{fill:url(#SVGID_00000090264238463996771410000018077538879951441846_);}
	.st3{clip-path:url(#SVGID_00000080188305787457866450000010205514272707696275_);}
	.st4{clip-path:url(#SVGID_00000127024738105047940300000004246571363249299612_);}
	.st5{opacity:5.000310e-02;clip-path:url(#SVGID_00000178905044769268147630000007856254463108762767_);}
	.st6{clip-path:url(#SVGID_00000102511993285767299010000011171549350414364863_);}
	
		.st7{clip-path:url(#SVGID_00000154387827309217975130000003533106114787529364_);fill:url(#SVGID_00000028296046755116350160000007260241756509050037_);}
	.st8{opacity:5.000310e-02;clip-path:url(#SVGID_00000057117817335918086790000001593574989401327012_);}
	.st9{clip-path:url(#SVGID_00000039838535984324368660000010703669777575264142_);}
	
		.st10{clip-path:url(#SVGID_00000078044314505408265560000000211956113977262213_);fill:url(#SVGID_00000021839161798207023860000011418693624673848752_);}
</style>
<g>
	<defs>
		<rect id="SVGID_00000081634285623120517790000000863465239774146994_" width="1125" height="2436"/>
	</defs>
	<clipPath id="SVGID_00000109030922615703269090000008039471843657002920_">
		<use xlink:href="#SVGID_00000081634285623120517790000000863465239774146994_"  style="overflow:visible;"/>
	</clipPath>
	<g style="clip-path:url(#SVGID_00000109030922615703269090000008039471843657002920_);">
		<linearGradient id="SVGID_1_" gradientUnits="userSpaceOnUse" x1="-194.8296" y1="2299.5789" x2="1319.8296" y2="136.4212">
			<stop  offset="0" style="stop-color:#291606"/>
			<stop  offset="0.3959" style="stop-color:#47270F"/>
			<stop  offset="1" style="stop-color:#7D461E"/>
		</linearGradient>
		<rect class="st0" width="1125" height="2436"/>
	</g>
	<g style="clip-path:url(#SVGID_00000109030922615703269090000008039471843657002920_);">
		<g>
			<defs>
				<rect id="SVGID_00000015355497800726571650000006860630432588414094_" x="-305" y="1813" width="1736" height="1302"/>
			</defs>
			<clipPath id="SVGID_00000057853105134990750060000012523483775134000266_">
				<use xlink:href="#SVGID_00000015355497800726571650000006860630432588414094_"  style="overflow:visible;"/>
			</clipPath>
			<g style="clip-path:url(#SVGID_00000057853105134990750060000012523483775134000266_);">
				<defs>
					<rect id="SVGID_00000070819740620442773560000012538734976137970058_" x="-305" y="1813" width="1736" height="1302"/>
				</defs>
				<clipPath id="SVGID_00000075164451406941005000000005280387883743174818_">
					<use xlink:href="#SVGID_00000070819740620442773560000012538734976137970058_"  style="overflow:visible;"/>
				</clipPath>
				<g style="clip-path:url(#SVGID_00000075164451406941005000000005280387883743174818_);">
					<defs>
						<rect id="SVGID_00000077297847900511657490000009162252072584350907_" x="-305" y="1813" width="1736" height="1302"/>
					</defs>
					<clipPath id="SVGID_00000175321597205056676580000002571292155239429523_">
						<use xlink:href="#SVGID_00000077297847900511657490000009162252072584350907_"  style="overflow:visible;"/>
					</clipPath>
					<g style="opacity:5.000310e-02;clip-path:url(#SVGID_00000175321597205056676580000002571292155239429523_);">
						<g>
							<defs>
								
									<rect id="SVGID_00000000906235916042672170000000300148347456933769_" x="-218.2" y="2100.5" width="1169.1" height="965.7"/>
							</defs>
							<clipPath id="SVGID_00000023277400625829143760000008737974220011684023_">
								<use xlink:href="#SVGID_00000000906235916042672170000000300148347456933769_"  style="overflow:visible;"/>
							</clipPath>
							<g style="clip-path:url(#SVGID_00000023277400625829143760000008737974220011684023_);">
								<defs>
									
										<rect id="SVGID_00000049221488704063097160000006226189536956420267_" x="-218.2" y="2100.5" width="1169.1" height="965.7"/>
								</defs>
								<clipPath id="SVGID_00000047743449319305001820000015964809929856005806_">
									<use xlink:href="#SVGID_00000049221488704063097160000006226189536956420267_"  style="overflow:visible;"/>
								</clipPath>
								<g style="clip-path:url(#SVGID_00000047743449319305001820000015964809929856005806_);">
									
										<image style="overflow:visible;" width="431" height="356" xlink:href="CE3B5618AF7F652C.png"  transform="matrix(2.7125 0 0 2.7125 -218.2 2100.5249)">
									</image>
								</g>
							</g>
						</g>
					</g>
				</g>
				<g style="clip-path:url(#SVGID_00000075164451406941005000000005280387883743174818_);">
					<defs>
						<path id="SVGID_00000027579662742554041140000002086937906278102460_" d="M60.5,2152.2c-94.4,41.6-121.1,132.4-121.1,132.4
							l-4,10.3l-133.7,344l-2.5,6.5c-0.6,13.1,5.7,27.4,16.8,33.2l3.9,1.5l3.9,1.5c2.6,1,3.9,1.5,5.7,0.7c2.6,1,7.4-0.1,9.2-0.9
							c11-1.6,19.7-8.7,23.7-19l133.7-344c41.6-106.9,162.4-162.3,270.6-120.2c108.2,42.1,160,164.5,118.4,271.4l-133.7,344l-1,2.6
							l-1.5,3.9c0.8,1.8,0.3,3.1-0.2,4.4c0.8,1.8,0.3,3.1,0.3,3.1c0.8,1.8,0.8,1.8,0.3,3.1c1.3,0.5,0.8,1.8,1.6,3.6l2.4,5.4
							c0.8,1.8,1.6,3.6,2.9,4.1c2.1,2.3,3.7,5.9,6.2,6.9c0,0,0.8,1.8,2.1,2.3l2.6,1l3.9,1.5c5.2,2,10.8,2.7,17,2.1
							c7.9-1.4,16.4-4,22-10.7l1-2.6c0,0,1.8-0.8,2.3-2.1l1.5-3.9l133.7-344c41.6-106.9,163.7-161.8,270.6-120.2
							c108.2,42.1,158.7,164,119.7,271.9l-133.7,344c-6,15.5,1.4,34.6,18.1,41.2c18,7,36.4-2.2,42.4-17.6l133.7-344
							c55.1-141.7-15-300.9-156.8-356c-96.6-37.5-202.7-16.5-278.8,45.9c-12.8-96.9-75.5-183.5-173.4-221.6
							c-32.9-12.8-66.6-18.9-99.6-18.9C144.6,2118.8,100,2130.5,60.5,2152.2"/>
					</defs>
					<clipPath id="SVGID_00000038383989877332508590000008481134384899263617_">
						<use xlink:href="#SVGID_00000027579662742554041140000002086937906278102460_"  style="overflow:visible;"/>
					</clipPath>
					
						<linearGradient id="SVGID_00000038376959143651203280000007563942230242423684_" gradientUnits="userSpaceOnUse" x1="-6.568" y1="-2.4101" x2="-3.8555" y2="-2.4101" gradientTransform="matrix(129.9703 -391.4064 -391.4064 -129.9703 230.0477 -135.0358)">
						<stop  offset="0" style="stop-color:#A7A9BE"/>
						<stop  offset="2.738833e-02" style="stop-color:#AAACC0"/>
						<stop  offset="0.4667" style="stop-color:#D8D9E2"/>
						<stop  offset="0.8052" style="stop-color:#F4F5F7"/>
						<stop  offset="1" style="stop-color:#FFFFFF"/>
					</linearGradient>
					
						<polygon style="clip-path:url(#SVGID_00000038383989877332508590000008481134384899263617_);fill:url(#SVGID_00000038376959143651203280000007563942230242423684_);" points="
						-476.3,2946.7 -86.7,1773.2 1229.1,2210.1 839.4,3383.6 					"/>
				</g>
				<g style="clip-path:url(#SVGID_00000075164451406941005000000005280387883743174818_);">
					<defs>
						<rect id="SVGID_00000127750586816470022850000000399137812234644881_" x="-305" y="1813" width="1736" height="1302"/>
					</defs>
					<clipPath id="SVGID_00000008147778414158971770000016659403482272962976_">
						<use xlink:href="#SVGID_00000127750586816470022850000000399137812234644881_"  style="overflow:visible;"/>
					</clipPath>
					<g style="opacity:5.000310e-02;clip-path:url(#SVGID_00000008147778414158971770000016659403482272962976_);">
						<g>
							<defs>
								
									<rect id="SVGID_00000167384103235743766440000015453089118737513373_" x="131.7" y="1878.1" width="1169.1" height="965.7"/>
							</defs>
							<clipPath id="SVGID_00000046301009679168414630000006137832820250519173_">
								<use xlink:href="#SVGID_00000167384103235743766440000015453089118737513373_"  style="overflow:visible;"/>
							</clipPath>
							<g style="clip-path:url(#SVGID_00000046301009679168414630000006137832820250519173_);">
								<defs>
									
										<rect id="SVGID_00000131329985745120167750000011528228404535232145_" x="131.7" y="1878.1" width="1169.1" height="965.7"/>
								</defs>
								<clipPath id="SVGID_00000181788478214767365350000014648788257454339980_">
									<use xlink:href="#SVGID_00000131329985745120167750000011528228404535232145_"  style="overflow:visible;"/>
								</clipPath>
								<g style="clip-path:url(#SVGID_00000181788478214767365350000014648788257454339980_);">
									
										<image style="overflow:visible;" width="431" height="356" xlink:href="CE3B5618AF7F652D.png"  transform="matrix(2.7125 0 0 2.7125 131.7125 1878.1)">
									</image>
								</g>
							</g>
						</g>
					</g>
				</g>
				<g style="clip-path:url(#SVGID_00000075164451406941005000000005280387883743174818_);">
					<defs>
						<path id="SVGID_00000156550767485287855420000011001976949940862613_" d="M409.6,1929.2c-94.4,41.6-121.1,132.4-121.1,132.4
							l-4,10.3l-133.7,344l-2.5,6.5c-0.6,13.1,5.7,27.4,16.8,33.2l3.9,1.5l3.9,1.5c2.6,1,3.9,1.5,5.7,0.7c2.6,1,7.4-0.1,9.2-0.9
							c11-1.6,19.7-8.7,23.7-19l133.7-344c41.6-106.9,162.4-162.3,270.6-120.2c108.2,42.1,160,164.5,118.4,271.4l-133.7,344l-1,2.6
							l-1.5,3.9c0.8,1.8,0.3,3.1-0.2,4.4c0.8,1.8,0.3,3.1,0.3,3.1c0.8,1.8,0.8,1.8,0.3,3.1c1.3,0.5,0.8,1.8,1.6,3.6l2.4,5.4
							c0.8,1.8,1.6,3.6,2.9,4.1c2.1,2.3,3.7,5.9,6.2,6.9c0,0,0.8,1.8,2.1,2.3l2.6,1l3.9,1.5c5.2,2,10.8,2.7,17,2.1
							c7.9-1.4,16.4-4,22-10.7l1-2.6c0,0,1.8-0.8,2.3-2.1l1.5-3.9l133.7-344c41.6-106.9,163.7-161.8,270.6-120.2
							c108.2,42.1,158.7,164,119.7,271.9l-133.7,344c-6,15.5,1.4,34.6,18.1,41.2c18,7,36.4-2.2,42.4-17.6l133.7-344
							c55.1-141.7-15-300.9-156.8-356c-96.6-37.5-202.7-16.5-278.8,45.9c-12.8-96.9-75.5-183.5-173.4-221.6
							c-32.9-12.8-66.6-18.9-99.6-18.9C493.7,1895.8,449.1,1907.5,409.6,1929.2"/>
					</defs>
					<clipPath id="SVGID_00000088126233287527907070000009672307589433060264_">
						<use xlink:href="#SVGID_00000156550767485287855420000011001976949940862613_"  style="overflow:visible;"/>
					</clipPath>
					
						<linearGradient id="SVGID_00000123418243576245066330000002858531865018717825_" gradientUnits="userSpaceOnUse" x1="-5.9679" y1="-3.0966" x2="-3.2554" y2="-3.0966" gradientTransform="matrix(149.6458 -384.3141 -384.3141 -149.6458 353.2495 -208.4041)">
						<stop  offset="0" style="stop-color:#FF931E"/>
						<stop  offset="0.4958" style="stop-color:#FFCA91"/>
						<stop  offset="0.9862" style="stop-color:#FFFFFF"/>
						<stop  offset="1" style="stop-color:#FFFFFF"/>
					</linearGradient>
					
						<polygon style="clip-path:url(#SVGID_00000088126233287527907070000009672307589433060264_);fill:url(#SVGID_00000123418243576245066330000002858531865018717825_);" points="
						-163.1,2694 299.8,1505.1 1614.1,2016.8 1151.1,3205.7 					"/>
				</g>
			</g>
		</g>
	</g>
</g>
</svg>
