<svg width="36" height="46" viewBox="0 0 36 46" fill="none" xmlns="http://www.w3.org/2000/svg">
<circle cx="18" cy="25" r="18" fill="#F25F4C"/>
<path d="M20.5133 32.4C20.3426 32.4853 20.0226 32.56 19.5533 32.624C19.1053 32.6667 18.6679 32.688 18.2413 32.688C17.3666 32.688 16.7053 32.5493 16.2573 32.272C15.8093 31.9733 15.5853 31.3547 15.5853 30.416V26.896H10.7533C10.6039 26.6613 10.4759 26.352 10.3693 25.968C10.2839 25.584 10.2413 25.2 10.2413 24.816C10.2413 24.048 10.4119 23.4933 10.7533 23.152C11.0946 22.7893 11.5533 22.608 12.1293 22.608H15.5853V17.232C15.7986 17.168 16.1186 17.104 16.5453 17.04C16.9933 16.9547 17.4306 16.912 17.8573 16.912C18.7106 16.912 19.3613 17.0613 19.8093 17.36C20.2786 17.6587 20.5133 18.288 20.5133 19.248V22.608H25.2493C25.3559 22.864 25.4626 23.184 25.5693 23.568C25.6973 23.9307 25.7613 24.3147 25.7613 24.72C25.7613 25.4667 25.5906 26.0213 25.2493 26.384C24.9079 26.7253 24.4599 26.896 23.9053 26.896H20.5133V32.4Z" fill="white"/>
</svg>
